<svg xmlns="http://www.w3.org/2000/svg" xml:space="preserve" width="512" height="512" style="enable-background:new 0 0 512 512" viewBox="0 0 64 64"><path fill="#ff9800" d="M48 3.25H16A12.76 12.76 0 0 0 3.25 16v32A12.76 12.76 0 0 0 16 60.75h32A12.76 12.76 0 0 0 60.75 48V16A12.76 12.76 0 0 0 48 3.25zm1 45.16H15a3.75 3.75 0 0 1 0-7.5h34a3.75 3.75 0 0 1 0 7.5zm0-12.66H15a3.75 3.75 0 0 1 0-7.5h34a3.75 3.75 0 0 1 0 7.5zm0-12.66H15a3.75 3.75 0 0 1 0-7.5h34a3.75 3.75 0 0 1 0 7.5z" data-name="Layer 46" data-original="#000000"/></svg>